<svg xmlns="http://www.w3.org/2000/svg" width="8.095" height="10.11" viewBox="0 0 8.095 10.11">
  <g id="copy" transform="translate(-48.65)">
    <g id="Group_11285" data-name="Group 11285" transform="translate(48.65)">
      <path id="Path_130" data-name="Path 130" d="M54.149,85.4h-4.7a.8.8,0,0,0-.8.8v6.743a.8.8,0,0,0,.8.8h4.7a.8.8,0,0,0,.8-.8V86.2A.8.8,0,0,0,54.149,85.4Zm.238,7.54a.24.24,0,0,1-.24.24h-4.7a.24.24,0,0,1-.24-.24V86.2a.24.24,0,0,1,.24-.24h4.7a.24.24,0,0,1,.24.24Z" transform="translate(-48.65 -83.632)" fill="#979797"/>
      <path id="Path_131" data-name="Path 131" d="M140.949,0h-4.7a.8.8,0,0,0-.8.8.28.28,0,0,0,.559,0,.24.24,0,0,1,.24-.24h4.7a.24.24,0,0,1,.24.24V7.543a.24.24,0,0,1-.24.24.28.28,0,1,0,0,.559.8.8,0,0,0,.8-.8V.8A.8.8,0,0,0,140.949,0Z" transform="translate(-133.653)" fill="#979797"/>
    </g>
  </g>
</svg>
