<svg xmlns="http://www.w3.org/2000/svg" width="11.363" height="10.11" viewBox="0 0 11.363 10.11">
  <path id="heart_1_" data-name="heart (1)" d="M5.682,10.11a.666.666,0,0,1-.439-.165c-.459-.4-.9-.779-1.292-1.111l0,0A24.03,24.03,0,0,1,1.127,6.184,4.23,4.23,0,0,1,0,3.415,3.552,3.552,0,0,1,.9.989,3.056,3.056,0,0,1,3.175,0,2.858,2.858,0,0,1,4.96.616a3.653,3.653,0,0,1,.722.754A3.653,3.653,0,0,1,6.4.616,2.858,2.858,0,0,1,8.189,0a3.056,3.056,0,0,1,2.273.989,3.552,3.552,0,0,1,.9,2.426,4.229,4.229,0,0,1-1.127,2.768A24.028,24.028,0,0,1,7.416,8.832c-.391.333-.834.711-1.295,1.113a.667.667,0,0,1-.439.165ZM3.175.666a2.4,2.4,0,0,0-1.784.775A2.889,2.889,0,0,0,.666,3.415,3.559,3.559,0,0,0,1.64,5.759,23.648,23.648,0,0,0,4.38,8.325l0,0c.392.334.836.713,1.3,1.117.465-.405.91-.784,1.3-1.119a23.654,23.654,0,0,0,2.74-2.566A3.559,3.559,0,0,0,10.7,3.415a2.889,2.889,0,0,0-.725-1.974A2.4,2.4,0,0,0,8.189.666a2.208,2.208,0,0,0-1.378.477,3.23,3.23,0,0,0-.768.889.42.42,0,0,1-.722,0,3.227,3.227,0,0,0-.768-.889A2.208,2.208,0,0,0,3.175.666Zm0,0" transform="translate(0 0)" fill="#979797"/>
</svg>
