<svg xmlns="http://www.w3.org/2000/svg" width="7.083" height="13.996" viewBox="0 0 7.083 13.996">
  <g id="left-arrow" transform="translate(-101.48)">
    <g id="Group_11034" data-name="Group 11034" transform="translate(101.48 0)">
      <path id="Path_1" data-name="Path 1" d="M103.86,7l4.51-5.236a.825.825,0,0,0,.193-.541.826.826,0,0,0-.193-.541l-.4-.459a.6.6,0,0,0-.933,0l-5.37,6.234a.864.864,0,0,0,0,1.087l5.365,6.228a.6.6,0,0,0,.933,0l.4-.459a.856.856,0,0,0,0-1.083Z" transform="translate(-101.48 0)" fill="#979797"/>
    </g>
  </g>
</svg>
