<svg xmlns="http://www.w3.org/2000/svg" width="11.971" height="9.473" viewBox="0 0 11.971 9.473">
  <g id="picture" transform="translate(0 -27.677)">
    <path id="Path_114" data-name="Path 114" d="M11.181,27.677H.79a.791.791,0,0,0-.79.79V36.36a.791.791,0,0,0,.79.79H11.181a.791.791,0,0,0,.79-.79V28.467A.791.791,0,0,0,11.181,27.677ZM.79,28.354H11.181a.114.114,0,0,1,.113.113v5.256L9.484,31.4a.7.7,0,0,0-1.1-.04l-2.348,2.6a.222.222,0,0,1-.253.035L3.853,32.774a1.034,1.034,0,0,0-1.126.05l-2.05,1.56V28.467A.114.114,0,0,1,.79,28.354Zm10.391,8.119H.79a.114.114,0,0,1-.113-.113V35.234l2.46-1.872a.368.368,0,0,1,.356-.016l1.931,1.216a.9.9,0,0,0,1.116-.153l2.348-2.6c.014-.016.024-.02.032-.021s.017.006.03.023l2.344,3.008V36.36A.114.114,0,0,1,11.181,36.473Z" transform="translate(0)" fill="#979797"/>
    <path id="Path_115" data-name="Path 115" d="M85.476,78.49a1.2,1.2,0,1,0-1.2-1.2A1.2,1.2,0,0,0,85.476,78.49Zm0-1.721a.522.522,0,1,1-.522.522A.523.523,0,0,1,85.476,76.769Z" transform="translate(-80.474 -46.23)" fill="#979797"/>
  </g>
</svg>
