<svg id="Group_11342" data-name="Group 11342" xmlns="http://www.w3.org/2000/svg" width="9.964" height="10.628" viewBox="0 0 9.964 10.628">
  <path id="Path_128" data-name="Path 128" d="M24.1,6.892a1.867,1.867,0,0,0-1.5.759l-2.932-1.5A1.868,1.868,0,0,0,19.6,4.925l3.073-1.847a1.861,1.861,0,1,0-.32-.534L19.273,4.395a1.868,1.868,0,1,0,.115,2.317l2.924,1.494A1.868,1.868,0,1,0,24.1,6.892Zm0-6.269A1.245,1.245,0,1,1,22.85,1.868,1.247,1.247,0,0,1,24.1.623ZM17.868,6.871a1.245,1.245,0,1,1,1.245-1.245A1.247,1.247,0,0,1,17.868,6.871ZM24.1,10.005A1.245,1.245,0,1,1,25.341,8.76,1.247,1.247,0,0,1,24.1,10.005Z" transform="translate(-16)" fill="#979797"/>
</svg>
