<svg xmlns="http://www.w3.org/2000/svg" width="12.82" height="8.686" viewBox="0 0 12.82 8.686">
  <g id="Group_11304" data-name="Group 11304" transform="translate(-121.806 -623.804)">
    <g id="video-editing" transform="translate(125.213 626.019)">
      <g id="Group_11242" data-name="Group 11242" transform="translate(0 0)">
        <path id="Path_123" data-name="Path 123" d="M24.38,21.906l-2.9-1.811a.274.274,0,0,0-.3,0,.253.253,0,0,0-.181.241v3.651a.317.317,0,0,0,.151.272.274.274,0,0,0,.3,0l2.9-1.811a.308.308,0,0,0,.151-.241.267.267,0,0,0-.121-.3ZM21.6,23.445V20.88l2.022,1.267Z" transform="translate(-21 -20.05)" fill="#979797"/>
      </g>
    </g>
    <path id="video-camera" d="M12.588.766A.254.254,0,0,0,12.322.76L9.4,2.467V1.443A1.4,1.4,0,0,0,8.056,0H1.348A1.4,1.4,0,0,0,0,1.443v5.7A1.4,1.4,0,0,0,1.348,8.586H8.056A1.4,1.4,0,0,0,9.4,7.142V6.137l2.919,1.707a.254.254,0,0,0,.267-.005.293.293,0,0,0,.132-.248V1.014a.293.293,0,0,0-.132-.248ZM8.864,7.142a.84.84,0,0,1-.808.866H1.348A.84.84,0,0,1,.54,7.142v-5.7A.84.84,0,0,1,1.348.577H8.056a.84.84,0,0,1,.808.866ZM12.181,7.1,9.4,5.479V3.125L12.181,1.5Zm0,0" transform="translate(121.856 623.854)" fill="#979797" stroke="#707070" stroke-width="0.1"/>
  </g>
</svg>
